<?xml version="1.0" encoding="UTF-8"?>
<svg width="100" height="100" viewBox="0 0 100 100" xmlns="http://www.w3.org/2000/svg">
  <g opacity="0.06" fill="#8B4513">
    <path d="M50,10 C60,10 70,20 70,30 C70,40 60,50 50,50 C40,50 30,40 30,30 C30,20 40,10 50,10 Z"/>
    <path d="M20,40 C25,40 30,45 30,50 C30,55 25,60 20,60 C15,60 10,55 10,50 C10,45 15,40 20,40 Z"/>
    <path d="M80,40 C85,40 90,45 90,50 C90,55 85,60 80,60 C75,60 70,55 70,50 C70,45 75,40 80,40 Z"/>
    <path d="M50,70 L60,90 H40 Z"/>
  </g>
</svg>
